<svg id="Layer_2" data-name="Layer 2" xmlns="http://www.w3.org/2000/svg" viewBox="0 0 171 230"><defs><style>.cls-1{fill:#efaa30;}.cls-2{fill:#fff;}.cls-2,.cls-3{stroke:#fff;stroke-miterlimit:10;}.cls-3{fill:none;}</style></defs><circle class="cls-1" cx="93" cy="153" r="51"/><circle class="cls-2" cx="27" cy="203" r="5.5"/><circle class="cls-2" cx="69" cy="224" r="5.5"/><circle class="cls-2" cx="101" cy="224" r="5.5"/><circle class="cls-2" cx="132" cy="209" r="5.5"/><circle class="cls-2" cx="153" cy="188" r="5.5"/><circle class="cls-2" cx="165" cy="155" r="5.5"/><circle class="cls-2" cx="165" cy="127" r="5.5"/><circle class="cls-2" cx="158" cy="98" r="5.5"/><circle class="cls-2" cx="152" cy="76" r="5.5"/><circle class="cls-2" cx="137" cy="44" r="5.5"/><circle class="cls-2" cx="118" cy="18" r="5.5"/><circle class="cls-2" cx="86" cy="6" r="5.5"/><circle class="cls-2" cx="56" cy="15" r="5.5"/><circle class="cls-2" cx="39" cy="32" r="5.5"/><circle class="cls-2" cx="28" cy="53" r="5.5"/><circle class="cls-2" cx="9" cy="105" r="5.5"/><circle class="cls-2" cx="6" cy="136" r="5.5"/><circle class="cls-2" cx="17" cy="148" r="5.5"/><circle class="cls-2" cx="9" cy="168" r="5.5"/><circle class="cls-2" cx="34" cy="105" r="5.5"/><circle class="cls-2" cx="60" cy="76" r="5.5"/><circle class="cls-2" cx="71" cy="32" r="5.5"/><circle class="cls-2" cx="86" cy="48" r="5.5"/><circle class="cls-2" cx="117" cy="61" r="5.5"/><circle class="cls-2" cx="117" cy="98" r="5.5"/><circle class="cls-2" cx="64" cy="127" r="5.5"/><circle class="cls-2" cx="49" cy="148" r="5.5"/><circle class="cls-2" cx="87" cy="145" r="5.5"/><circle class="cls-2" cx="117" cy="164" r="5.5"/><circle class="cls-2" cx="141" cy="125" r="5.5"/><circle class="cls-2" cx="141" cy="159" r="5.5"/><circle class="cls-2" cx="59" cy="186" r="5.5"/><circle class="cls-2" cx="100" cy="205" r="5.5"/><line class="cls-3" x1="28.5" y1="52.5" x2="8.5" y2="104.5"/><line class="cls-3" x1="39.5" y1="31.5" x2="28.5" y2="52.5"/><line class="cls-3" x1="56.5" y1="14.5" x2="39.5" y2="32.5"/><line class="cls-3" x1="85.5" y1="5.5" x2="56.5" y2="14.5"/><line class="cls-3" x1="118.5" y1="17.5" x2="85.5" y2="5.5"/><line class="cls-3" x1="137.5" y1="43.5" x2="118.5" y2="17.5"/><line class="cls-3" x1="152.5" y1="76.5" x2="137.5" y2="43.5"/><line class="cls-3" x1="158.5" y1="98.5" x2="152.5" y2="74.5"/><line class="cls-3" x1="165.5" y1="127.5" x2="158.5" y2="97.5"/><line class="cls-3" x1="164.5" y1="154.5" x2="165.5" y2="126.5"/><line class="cls-3" x1="153.5" y1="188.5" x2="165.5" y2="153.5"/><line class="cls-3" x1="132.5" y1="209.5" x2="153.5" y2="188.5"/><line class="cls-3" x1="100.5" y1="224.5" x2="133.5" y2="208.5"/><line class="cls-3" x1="69.5" y1="224.5" x2="101.5" y2="223.5"/><line class="cls-3" x1="27.5" y1="203.5" x2="69.5" y2="224.5"/><line class="cls-3" x1="8.5" y1="167.5" x2="27.5" y2="203.5"/><line class="cls-3" x1="5.5" y1="135.5" x2="8.5" y2="167.5"/><line class="cls-3" x1="8.5" y1="104.5" x2="5.5" y2="134.5"/><line class="cls-3" x1="33.5" y1="104.5" x2="8.5" y2="104.5"/><line class="cls-3" x1="59.5" y1="75.5" x2="33.5" y2="104.5"/><line class="cls-3" x1="85.5" y1="47.5" x2="59.5" y2="76.5"/><line class="cls-3" x1="70.5" y1="31.5" x2="59.5" y2="76.5"/><line class="cls-3" x1="55.5" y1="14.5" x2="70.5" y2="31.5"/><line class="cls-3" x1="85.5" y1="47.5" x2="70.5" y2="31.5"/><line class="cls-3" x1="117.5" y1="61.5" x2="85.5" y2="47.5"/><line class="cls-3" x1="85.5" y1="5.5" x2="85.5" y2="47.5"/><line class="cls-3" x1="116.5" y1="60.5" x2="137.5" y2="43.5"/><line class="cls-3" x1="116.5" y1="97.5" x2="116.5" y2="60.5"/><line class="cls-3" x1="151.5" y1="76.5" x2="116.5" y2="60.5"/><line class="cls-3" x1="157.5" y1="97.5" x2="117.5" y2="97.5"/><line class="cls-3" x1="140.5" y1="124.5" x2="117.5" y2="98.5"/><line class="cls-3" x1="48.5" y1="147.5" x2="16.5" y2="148.5"/><line class="cls-3" x1="26.5" y1="202.5" x2="48.5" y2="148.5"/><line class="cls-3" x1="69.5" y1="224.5" x2="58.5" y2="185.5"/><line class="cls-3" x1="49.5" y1="147.5" x2="58.5" y2="185.5"/><line class="cls-3" x1="64.5" y1="126.5" x2="48.5" y2="148.5"/><line class="cls-3" x1="87.5" y1="145.5" x2="63.5" y2="126.5"/><line class="cls-3" x1="58.5" y1="185.5" x2="87.5" y2="143.5"/><line class="cls-3" x1="116.5" y1="163.5" x2="87.5" y2="145.5"/><line class="cls-3" x1="132.5" y1="209.5" x2="99.5" y2="204.5"/><line class="cls-3" x1="152.5" y1="187.5" x2="117.5" y2="163.5"/><line class="cls-3" x1="164.5" y1="154.5" x2="141.5" y2="158.5"/><line class="cls-3" x1="116.5" y1="163.5" x2="140.5" y2="159.5"/><line class="cls-3" x1="140.5" y1="124.5" x2="140.5" y2="158.5"/><line class="cls-3" x1="116.5" y1="164.5" x2="141.5" y2="124.5"/><line class="cls-3" x1="100.5" y1="205.5" x2="116.5" y2="163.5"/><line class="cls-3" x1="58.5" y1="185.5" x2="100.5" y2="205.5"/><line class="cls-3" x1="59.5" y1="75.5" x2="63.5" y2="127.5"/><line class="cls-3" x1="116.5" y1="97.5" x2="59.5" y2="75.5"/><line class="cls-3" x1="38.5" y1="31.5" x2="59.5" y2="75.5"/><line class="cls-3" x1="28.5" y1="52.5" x2="33.5" y2="105.5"/><line class="cls-3" x1="16.5" y1="147.5" x2="6.5" y2="136.5"/><line class="cls-3" x1="9.5" y1="168.5" x2="16.5" y2="147.5"/><line class="cls-3" x1="33.5" y1="104.5" x2="16.5" y2="148.5"/><line class="cls-3" x1="63.5" y1="127.5" x2="33.5" y2="104.5"/><line class="cls-3" x1="165.5" y1="127.5" x2="141.5" y2="125.5"/><line class="cls-3" x1="101.5" y1="224.5" x2="100.5" y2="204.5"/><line class="cls-3" x1="87.5" y1="145.5" x2="117.5" y2="98.5"/></svg>